<svg xmlns:xlink="http://www.w3.org/1999/xlink" preserveAspectRatio="xMidYMid meet" data-bbox="100 118.6 800 162.8" viewBox="100 118.6 800 162.8" xmlns="http://www.w3.org/2000/svg" data-type="color" role="img" aria-label="RedAgile Logo" width="800"  height="162.8" ><defs><style>#comp-ktv5ihnh svg [data-color="2"] {fill: #000000;}</style></defs>
    <g>
        <path d="M167.7 279.1h-16.4l-32-46h-5.6v46H100V170.3h16.4c9.7 0 20.1.1 28.7 5 9.1 5.3 14.3 15.6 14.3 26 0 15.6-10.4 28.6-26.1 30.4l34.4 47.4zm-54.1-57.3h4.3c13.9 0 28.9-2.6 28.9-19.9 0-17-16.2-19.5-29.6-19.5h-3.6v39.4z" fill="#BE202E" data-color="1"></path>
        <path d="M207.2 170.3h58.4v12.4h-44.9v30.4h43.6v12.4h-43.6v41.1h44.9V279h-58.4V170.3z" fill="#BE202E" data-color="1"></path>
        <path d="M310.1 170.3h22.5c33.3 0 61 17.6 61 53.8 0 37.1-27.1 55-61.5 55H310V170.3zm13.5 96.4h4.8c27.7 0 51.6-10.4 51.6-42 0-31.7-23.9-42-51.6-42h-4.8v84z" fill="#BE202E" data-color="1"></path>
        <path d="M652.6 224.3v4.3c0 29.9-21.1 52.8-51.5 52.8s-55-26.3-55-56.4c0-31.3 25.1-57 56.4-57 16.9 0 33.6 7.6 44.3 21.1l-9.5 9.1c-7.8-10.7-20.9-17.7-34.2-17.7-24.4 0-43.4 19.8-43.4 44.1 0 22.8 18.8 44.4 42.3 44.4 16.9 0 35.1-14.6 35.6-32.3h-28.1v-12.4h43.1z" fill="#231f20" data-color="2"></path>
        <path d="M708 279.1h-13.6V170.3H708v108.8z" fill="#231f20" data-color="2"></path>
        <path d="M770.7 266.7h33v12.4h-46.6V170.3h13.6v96.4z" fill="#231f20" data-color="2"></path>
        <path d="M841.6 170.3H900v12.4h-44.9v30.4h43.6v12.4h-43.6v41.1H900V279h-58.4V170.3z" fill="#231f20" data-color="2"></path>
        <path fill="#BE202E" d="M505.3 242L470 225.6v21.2l47.7 22.1-12.4-26.9z" data-color="1"></path>
        <path fill="#231f20" d="M470 118.6l-74.6 162.8 26.9-12.5L470 164.8l47.7 104.1 26.8 12.5L470 118.6z" data-color="2"></path>
    </g>
</svg>