<?xml version="1.0" encoding="iso-8859-1"?>
<!-- Uploaded to: SVG Repo, www.svgrepo.com, Generator: SVG Repo Mixer Tools -->
<svg fill="#0D47A1" height="800px" width="800px" version="1.1" id="Layer_1" xmlns="http://www.w3.org/2000/svg" xmlns:xlink="http://www.w3.org/1999/xlink" 
	 viewBox="0 0 512 512" xml:space="preserve">
<g>
	<g>
		<path d="M456.348,0H55.652C24.968,0,0,24.968,0,55.652v400.696C0,487.032,24.968,512,55.652,512c9.88,0,388.553,0,400.696,0
			C487.032,512,512,487.032,512,456.348V55.652C512,24.968,487.032,0,456.348,0z M79.019,242.641l133.565-100.174
			c5.043-3.793,11.837-4.397,17.489-1.576l57.554,28.782l125.304-93.989c7.392-5.522,17.848-4.044,23.381,3.342
			c5.533,7.375,4.033,17.842-3.337,23.375L299.411,202.576c-5.065,3.782-11.848,4.402-17.489,1.576l-57.554-28.782L99.063,269.359
			c-7.405,5.534-17.85,4.025-23.381-3.337C70.151,258.641,71.65,248.174,79.019,242.641z M105.739,478.609H72.348V356.174
			c0-9.217,7.479-16.696,16.696-16.696c9.217,0,16.696,7.479,16.696,16.696V478.609z M172.522,478.609H139.13V306.087
			c0-9.217,7.479-16.696,16.696-16.696c9.217,0,16.696,7.479,16.696,16.696V478.609z M239.304,478.609h-33.391V256
			c0-9.217,7.479-16.696,16.696-16.696s16.696,7.479,16.696,16.696V478.609z M306.087,478.609h-33.391V289.391
			c0-9.217,7.479-16.696,16.696-16.696s16.696,7.479,16.696,16.696V478.609z M372.87,478.609h-33.391V239.304
			c0-9.217,7.479-16.696,16.696-16.696c9.217,0,16.696,7.479,16.696,16.696V478.609z M439.652,478.609h-33.391V189.217
			c0-9.217,7.479-16.696,16.696-16.696c9.217,0,16.696,7.479,16.696,16.696V478.609z"/>
	</g>
</g>
</svg>