<?xml version="1.0" encoding="iso-8859-1"?>
<!-- Uploaded to: SVG Repo, www.svgrepo.com, Generator: SVG Repo Mixer Tools -->
<svg fill="#242424" version="1.1" id="Layer_1" xmlns="http://www.w3.org/2000/svg" xmlns:xlink="http://www.w3.org/1999/xlink" 
	 viewBox="0 0 491.52 491.52" xml:space="preserve">
<g>
	<g>
		<path d="M421.785,158.07c4.39-14.12,6.165-28.81,5.29-43.82C423.43,51.76,370.49,0.5,309.07,0c-0.32,0-0.635,0-0.95,0
			c-49.645,0-93.895,31.86-111.305,78.14c-18.185-15.08-41.65-22.43-65.57-20.08c-34.035,3.37-63.7,27.27-75.57,60.88
			c-5.28,14.95-6.575,30.32-3.885,45.79C20.48,180.12,0,212.77,0,248.62c0,51.74,38.76,89.3,92.16,89.3v-20.48
			c-42.205,0-71.68-28.3-71.68-68.82c0-30.4,18.77-57.83,46.71-68.26l8.74-3.26l-2.435-9c-3.87-14.33-3.37-28.57,1.49-42.34
			c9.24-26.15,32.115-44.73,58.28-47.32c23.135-2.26,45.765,7.28,60.47,25.63l13.485,16.83l4.52-21.08
			c9.875-46.09,50.335-79.34,96.38-79.34c0.26,0,0.52,0,0.78,0c50.86,0.41,94.7,43.02,97.725,94.97
			c0.945,16.13-1.78,31.81-8.105,46.59l-5.5,12.86l13.915,1.36c36.545,3.58,64.105,34.69,64.105,72.36
			c0,40.52-29.475,68.82-71.68,68.82v20.48c53.4,0,92.16-37.56,92.16-89.3C491.52,204.86,462.33,168,421.785,158.07z"/>
	</g>
</g>
<g>
	<g>
		<path d="M389.12,317.44v-102.4H102.4v102.4h51.2v20.48h-51.2v102.4h46.08v30.72h-35.84v20.48h266.24v-20.48h-35.84v-30.72h46.08
			v-102.4h-40.96v-20.48H389.12z M322.56,471.04h-153.6v-30.72h153.6V471.04z M368.64,358.4v61.44H122.88V358.4H368.64z
			 M174.08,337.92v-20.48h153.6v20.48H174.08z M122.88,296.96v-61.44h245.76v61.44H122.88z"/>
	</g>
</g>
<g>
	<g>
		<rect x="143.36" y="256" width="81.92" height="20.48"/>
	</g>
</g>
<g>
	<g>
		<rect x="327.68" y="256" width="20.48" height="20.48"/>
	</g>
</g>
<g>
	<g>
		<rect x="286.72" y="256" width="20.48" height="20.48"/>
	</g>
</g>
<g>
	<g>
		<rect x="143.36" y="378.88" width="81.92" height="20.48"/>
	</g>
</g>
<g>
	<g>
		<rect x="327.68" y="378.88" width="20.48" height="20.48"/>
	</g>
</g>
<g>
	<g>
		<rect x="286.72" y="378.88" width="20.48" height="20.48"/>
	</g>
</g>
</svg>