<?xml version="1.0" encoding="iso-8859-1"?>
<!-- Uploaded to: SVG Repo, www.svgrepo.com, Generator: SVG Repo Mixer Tools -->
<svg fill="#242424" height="800px" width="800px" version="1.1" id="Layer_1" xmlns="http://www.w3.org/2000/svg" xmlns:xlink="http://www.w3.org/1999/xlink" 
	 viewBox="0 0 507.9 507.9" xml:space="preserve">
<g>
	<g>
		<path d="M465.7,84.45H42.3c-23.3,0-42.3,19-42.3,42.4v254.3c0,23.3,19,42.3,42.3,42.3h423.3c23.3,0,42.3-19,42.3-42.3v-254.3
			C508,103.45,489,84.45,465.7,84.45z M454.3,112.75l-200.4,169.1L53.7,112.75H454.3z M28.2,377.75v-249.6L177,253.75L28.2,377.75z
			 M51.4,395.15l147.5-122.9l45.9,38.8c2.6,2.2,5.9,3.3,9.1,3.3s6.5-1.1,9.1-3.3l46-38.8l147.7,122.9H51.4z M479.8,377.65
			l-148.9-123.9l148.9-125.7V377.65z"/>
	</g>
</g>
</svg>