<?xml version="1.0" encoding="iso-8859-1"?>
<!-- Uploaded to: SVG Repo, www.svgrepo.com, Generator: SVG Repo Mixer Tools -->
<svg fill="#242424" height="800px" width="800px" version="1.1" id="Layer_1" xmlns="http://www.w3.org/2000/svg" xmlns:xlink="http://www.w3.org/1999/xlink" 
	 viewBox="0 0 512.002 512.002" xml:space="preserve">
<g>
	<g>
		<path d="M489.656,429.861l-98.137-98.134c-0.383-0.383-0.796-0.718-1.231-1.006l0.062-10.872l29.342-4.106
			c2.272-0.318,4.294-1.606,5.543-3.529c1.25-1.924,1.604-4.295,0.969-6.501l-8.185-28.475l26.996-12.207
			c2.091-0.946,3.668-2.75,4.325-4.948c0.657-2.198,0.328-4.574-0.902-6.51l-15.876-25.016l22.463-19.318
			c1.739-1.496,2.745-3.673,2.756-5.966c0.01-2.293-0.973-4.48-2.699-5.992l-22.28-19.53l16.11-24.864
			c1.247-1.925,1.598-4.296,0.963-6.501c-0.636-2.205-2.196-4.025-4.277-4.99l-26.88-12.462l8.454-28.397
			c0.655-2.198,0.323-4.573-0.908-6.509c-1.231-1.935-3.241-3.241-5.51-3.581l-29.302-4.384l0.111-29.628
			c0.008-2.294-0.978-4.479-2.705-5.99c-1.725-1.511-4.018-2.194-6.296-1.885l-29.35,4.049l-8.24-28.458
			c-0.638-2.203-2.2-4.023-4.282-4.985c-2.083-0.961-4.48-0.975-6.572-0.034l-27.02,12.153l-15.924-24.98
			c-1.233-1.934-3.245-3.239-5.513-3.577c-2.269-0.336-4.574,0.327-6.315,1.819l-22.502,19.275L234.526,4.336
			c-1.728-1.509-4.026-2.195-6.298-1.878c-2.272,0.316-4.296,1.602-5.547,3.524l-16.16,24.833l-26.904-12.409
			c-2.082-0.961-4.481-0.971-6.572-0.027c-2.09,0.944-3.671,2.747-4.33,4.944l-8.51,28.38l-29.31-4.327
			c-2.267-0.331-4.573,0.331-6.314,1.826c-1.74,1.494-2.748,3.67-2.761,5.963l-0.169,29.629L92.31,88.901
			c-2.272,0.319-4.294,1.606-5.543,3.53c-1.25,1.924-1.604,4.295-0.969,6.501l8.185,28.475l-26.996,12.207
			c-2.089,0.946-3.668,2.75-4.325,4.95c-0.657,2.197-0.328,4.573,0.902,6.509l15.876,25.015l-22.463,19.318
			c-1.739,1.496-2.745,3.673-2.756,5.966s0.973,4.48,2.699,5.992l22.281,19.53l-16.111,24.865c-1.247,1.925-1.599,4.296-0.963,6.501
			c0.636,2.205,2.197,4.025,4.278,4.99l26.88,12.461l-8.454,28.397c-0.655,2.198-0.323,4.573,0.908,6.509
			c1.231,1.935,3.241,3.241,5.51,3.581l29.302,4.385l-0.05,13.302c-0.355,0.252-0.698,0.53-1.017,0.848l-23.228,23.228
			c-3.092,3.094-3.092,8.106,0,11.199c1.546,1.546,3.573,2.319,5.599,2.319s4.053-0.773,5.599-2.319l14.407-14.407
			c0.366,0.527,0.79,1.016,1.282,1.446c1.726,1.512,4.022,2.198,6.296,1.885l29.35-4.049l8.241,28.458
			c0.638,2.203,2.2,4.023,4.282,4.985c2.083,0.962,4.481,0.977,6.572,0.034l27.02-12.154l4.407,6.914L102.922,486.657l-4.378-45.974
			c-0.36-3.78-3.352-6.772-7.132-7.132l-45.975-4.378l35.623-35.623c3.092-3.094,3.092-8.106,0-11.199
			c-3.092-3.091-8.106-3.091-11.198,0l-47.511,47.511c-4.647,4.647-1.679,12.861,4.848,13.483l56.199,5.353l5.352,56.199
			c0.621,6.518,8.835,9.495,13.483,4.849L218.03,393.947c1.062,1.667,2.029,3.467,3.25,5.025c2.738,3.494,8.005,4.014,11.378,1.124
			l22.502-19.275l22.319,19.486c3.677,3.213,9.245,2.228,11.9-1.729c1.238-1.846,2.425-3.727,3.637-5.589l116.758,116.757
			c4.648,4.646,12.862,1.669,13.483-4.849l5.352-56.199l56.199-5.353C491.334,442.722,494.303,434.509,489.656,429.861z
			 M295.945,359.45l-14.923,22.928l-20.606-17.991c-1.491-1.302-3.349-1.954-5.208-1.954c-1.834,0-3.669,0.635-5.151,1.905
			l-20.776,17.795l-1.286-2.018c-0.129-1.837-0.888-3.638-2.293-5.044c-0.536-0.536-1.133-0.973-1.765-1.323l-9.36-14.684
			c-2.114-3.317-6.341-4.58-9.926-2.966l-24.947,11.221l-7.607-26.275c-1.094-3.777-4.794-6.181-8.688-5.642l-27.099,3.739
			l0.102-27.354c0.015-3.933-2.858-7.28-6.747-7.86l-27.055-4.049l7.806-26.218c1.122-3.768-0.692-7.79-4.259-9.443l-24.818-11.504
			l14.875-22.958c2.138-3.299,1.531-7.669-1.426-10.26l-20.571-18.032l20.74-17.837c2.982-2.565,3.63-6.927,1.522-10.247
			l-14.658-23.097l24.925-11.271c3.582-1.62,5.433-5.624,4.348-9.403l-7.557-26.289l27.092-3.792
			c3.894-0.546,6.798-3.865,6.82-7.797l0.155-27.356l27.062,3.995c3.892,0.575,7.611-1.794,8.741-5.56l7.856-26.203l24.84,11.458
			c3.571,1.645,7.809,0.422,9.953-2.872l14.921-22.929l20.606,17.991c2.963,2.587,7.374,2.608,10.359,0.05l20.776-17.795
			l14.703,23.068c2.114,3.316,6.339,4.58,9.926,2.966l24.948-11.221l7.609,26.276c1.094,3.778,4.799,6.184,8.688,5.642l27.099-3.739
			l-0.102,27.355c-0.015,3.933,2.858,7.28,6.748,7.86l27.054,4.048l-7.806,26.218c-1.122,3.768,0.692,7.79,4.259,9.443
			l24.819,11.505l-14.875,22.957c-2.138,3.299-1.531,7.669,1.426,10.26l20.571,18.032l-20.74,17.837
			c-2.982,2.565-3.63,6.927-1.522,10.247l14.658,23.097l-24.925,11.271c-3.583,1.62-5.434,5.623-4.348,9.403l7.556,26.29
			l-27.091,3.791c-3.894,0.546-6.798,3.865-6.82,7.797l-0.155,27.356l-27.062-3.995c-3.886-0.568-7.611,1.793-8.741,5.56
			l-7.856,26.203l-24.84-11.458C302.326,354.931,298.089,356.155,295.945,359.45z M420.592,433.551
			c-3.78,0.36-6.773,3.352-7.132,7.132l-4.378,45.974L301.844,379.418l3.639-5.591l26.904,12.409
			c2.083,0.962,4.481,0.972,6.572,0.027c2.091-0.944,3.671-2.747,4.33-4.944l8.51-28.38l29.31,4.327
			c2.271,0.335,4.574-0.33,6.314-1.826c1.01-0.868,1.764-1.969,2.23-3.185l76.917,76.916L420.592,433.551z"/>
	</g>
</g>
<g>
	<g>
		<path d="M256,42.369c-88.199,0-159.953,71.755-159.953,159.953S167.801,362.276,256,362.276c30.373,0,59.929-8.551,85.472-24.729
			c24.852-15.74,44.881-37.965,57.922-64.274c1.943-3.918,0.34-8.669-3.578-10.612c-3.917-1.942-8.669-0.339-10.612,3.578
			c-24.522,49.468-74.031,80.198-129.204,80.198c-79.466,0-144.117-64.65-144.117-144.117S176.534,58.205,256,58.205
			s144.117,64.65,144.117,144.116c0,9.388-0.908,18.775-2.698,27.903c-0.841,4.291,1.955,8.453,6.247,9.294
			c4.288,0.844,8.453-1.955,9.294-6.246c1.986-10.129,2.993-20.542,2.993-30.95C415.953,114.124,344.199,42.369,256,42.369z"/>
	</g>
</g>
<g>
	<g>
		<path d="M374.534,178.836l-44.344-67.571c-1.462-2.231-3.951-3.574-6.619-3.574H188.43c-2.668,0-5.156,1.343-6.621,3.574
			l-44.344,67.571c-1.919,2.926-1.692,6.765,0.561,9.442l111.915,133.031c1.505,1.789,3.723,2.821,6.059,2.821
			s4.555-1.033,6.059-2.821l111.915-133.031C376.227,185.601,376.455,181.762,374.534,178.836z M324.39,131.29l27.472,41.861
			h-49.078L324.39,131.29z M310.575,123.528l-20.903,40.499l-21.6-40.499H310.575z M276.589,173.151h-41.176l20.588-38.603
			L276.589,173.151z M243.93,123.528l-21.715,40.715l-21.714-40.715H243.93z M187.105,132.062l21.913,41.089H160.14L187.105,132.062
			z M159.319,188.988h56.787l25.727,98.082L159.319,188.988z M256.002,278.666l-23.523-89.678h47.045L256.002,278.666z
			 M270.17,287.07l25.727-98.082h56.786L270.17,287.07z"/>
	</g>
</g>
<g>
	<g>
		<path d="M504.101,46.524c-5.376-0.715-18.924-3.708-28.596-16.04c-6.872-8.767-8.522-18.278-8.894-23.166
			C466.296,3.19,462.855,0,458.714,0c-4.141,0-7.582,3.19-7.896,7.318c-0.373,4.889-2.023,14.4-8.894,23.166
			c-9.673,12.333-23.221,15.326-28.596,16.04c-3.936,0.523-6.875,3.879-6.875,7.85c0,3.971,2.94,7.326,6.875,7.85
			c5.376,0.715,18.924,3.708,28.596,16.04c6.872,8.767,8.522,18.278,8.894,23.166c0.315,4.128,3.755,7.318,7.896,7.318
			c4.141,0,7.582-3.19,7.896-7.318c0.373-4.889,2.023-14.4,8.893-23.165c9.674-12.334,23.222-15.327,28.597-16.041
			c3.936-0.523,6.875-3.879,6.875-7.85C510.976,50.403,508.037,47.047,504.101,46.524z M463.041,68.493
			c-1.647,2.101-3.08,4.224-4.326,6.342c-1.247-2.118-2.681-4.242-4.328-6.343c-4.97-6.337-10.66-10.873-16.218-14.118
			c5.559-3.245,11.25-7.781,16.218-14.118l0.001-0.001c1.647-2.101,3.08-4.224,4.326-6.342c1.247,2.118,2.681,4.242,4.328,6.343
			c4.97,6.337,10.66,10.873,16.218,14.118C473.702,57.619,468.011,62.156,463.041,68.493z"/>
	</g>
</g>
<g>
	<g>
		<path d="M98.674,46.524c-5.375-0.715-18.923-3.708-28.596-16.04c-6.872-8.767-8.522-18.278-8.894-23.166
			C60.869,3.19,57.428,0,53.288,0c-4.141,0-7.582,3.19-7.896,7.318c-0.373,4.889-2.023,14.4-8.893,23.165
			C26.825,42.817,13.277,45.81,7.902,46.524c-3.936,0.524-6.876,3.879-6.876,7.85c0,3.971,2.94,7.326,6.875,7.85
			c5.376,0.714,18.924,3.707,28.596,16.04c6.872,8.767,8.522,18.278,8.894,23.166c0.316,4.128,3.757,7.318,7.896,7.318
			c4.14,0,7.582-3.19,7.896-7.318c0.373-4.889,2.023-14.4,8.893-23.165c9.674-12.334,23.222-15.327,28.597-16.041
			c3.936-0.523,6.875-3.879,6.875-7.85C105.55,50.403,102.609,47.047,98.674,46.524z M57.613,68.493
			c-1.647,2.101-3.08,4.224-4.326,6.342c-1.247-2.118-2.681-4.242-4.328-6.343c-4.969-6.337-10.659-10.873-16.218-14.118
			c5.559-3.245,11.251-7.782,16.22-14.119c1.647-2.101,3.08-4.224,4.326-6.342c1.246,2.118,2.68,4.241,4.326,6.342l0.001,0.001
			c4.97,6.337,10.661,10.873,16.219,14.118C68.275,57.619,62.584,62.156,57.613,68.493z"/>
	</g>
</g>
<g>
	<g>
		<path d="M301.388,445.616c-5.375-0.715-18.923-3.708-28.596-16.04c-6.872-8.767-8.522-18.278-8.894-23.166
			c-0.315-4.128-3.755-7.318-7.896-7.318c-4.141,0-7.582,3.19-7.896,7.318c-0.373,4.889-2.023,14.4-8.893,23.165
			c-9.674,12.334-23.222,15.327-28.597,16.041c-3.936,0.523-6.875,3.879-6.875,7.85c0,3.971,2.94,7.326,6.875,7.85
			c5.376,0.715,18.924,3.708,28.596,16.04c6.872,8.767,8.522,18.278,8.894,23.166c0.315,4.128,3.755,7.318,7.896,7.318
			c4.141,0,7.582-3.19,7.896-7.318c0.373-4.889,2.023-14.4,8.893-23.165c9.674-12.334,23.222-15.327,28.597-16.041
			c3.936-0.523,6.875-3.879,6.875-7.85C308.263,449.495,305.324,446.139,301.388,445.616z M260.327,467.585
			c-1.647,2.101-3.08,4.224-4.326,6.342c-1.247-2.118-2.681-4.242-4.328-6.343c-4.97-6.337-10.66-10.873-16.218-14.118
			c5.559-3.246,11.25-7.782,16.22-14.119c1.647-2.101,3.08-4.224,4.326-6.342c1.246,2.118,2.68,4.241,4.326,6.342l0.001,0.001
			c4.97,6.337,10.66,10.873,16.218,14.118C270.989,456.711,265.297,461.248,260.327,467.585z"/>
	</g>
</g>
</svg>